<svg xmlns="http://www.w3.org/2000/svg" width="760" height="470" viewBox="0 0 760 470">
  <rect width="100%" height="100%" fill="white"/>
  <text x="380.0" y="26" text-anchor="middle" font-size="18" font-family="Arial, sans-serif">Periodic QEC recovery every 10 µs</text>
  <text x="380.0" y="45" text-anchor="middle" font-size="12" font-family="Arial, sans-serif">DQP spins #2 and #3; ideal instantaneous recovery channel</text>
  <g font-family="Arial, sans-serif" fill="#222"><line x1="70.0" y1="50" x2="70.0" y2="405" stroke="#ddd"/><text x="70.0" y="429" text-anchor="middle" font-size="13">0</text><line x1="236.2" y1="50" x2="236.2" y2="405" stroke="#ddd"/><text x="236.2" y="429" text-anchor="middle" font-size="13">5</text><line x1="402.5" y1="50" x2="402.5" y2="405" stroke="#ddd"/><text x="402.5" y="429" text-anchor="middle" font-size="13">10</text><line x1="568.8" y1="50" x2="568.8" y2="405" stroke="#ddd"/><text x="568.8" y="429" text-anchor="middle" font-size="13">15</text><line x1="735.0" y1="50" x2="735.0" y2="405" stroke="#ddd"/><text x="735.0" y="429" text-anchor="middle" font-size="13">20</text><line x1="70" y1="405.0" x2="735" y2="405.0" stroke="#ddd"/><text x="60" y="409.0" text-anchor="end" font-size="13">0</text><line x1="70" y1="318.0" x2="735" y2="318.0" stroke="#ddd"/><text x="60" y="322.0" text-anchor="end" font-size="13">0.25</text><line x1="70" y1="231.0" x2="735" y2="231.0" stroke="#ddd"/><text x="60" y="235.0" text-anchor="end" font-size="13">0.5</text><line x1="70" y1="144.0" x2="735" y2="144.0" stroke="#ddd"/><text x="60" y="148.0" text-anchor="end" font-size="13">0.75</text><line x1="70" y1="57.0" x2="735" y2="57.0" stroke="#ddd"/><text x="60" y="61.0" text-anchor="end" font-size="13">1</text></g>
  <rect x="70" y="50" width="665" height="355" fill="none" stroke="#333"/>
  <g><line x1="402.5" y1="50" x2="402.5" y2="405" stroke="#555" stroke-dasharray="6 5"/><text x="407.5" y="68" font-size="12" fill="#555">recovery 10 µs</text><line x1="735.0" y1="50" x2="735.0" y2="405" stroke="#555" stroke-dasharray="6 5"/><text x="740.0" y="68" font-size="12" fill="#555">recovery 20 µs</text></g>
  <polyline points="70.0,57.0 86.6,57.3 103.2,59.5 119.9,62.8 136.5,66.4 153.1,70.0 169.8,73.6 186.4,77.3 203.0,81.0 219.6,84.6 236.2,88.3 252.9,92.0 269.5,95.6 286.1,99.3 302.8,103.0 319.4,106.6 336.0,110.3 352.6,113.9 369.2,117.5 385.9,121.1 402.5,124.7 419.1,128.3 435.8,131.8 452.4,135.3 469.0,138.8 485.6,142.3 502.2,145.8 518.9,149.2 535.5,152.6 552.1,156.0 568.8,159.3 585.4,162.6 602.0,165.9 618.6,169.2 635.2,172.4 651.9,175.6 668.5,178.7 685.1,181.8 701.8,184.9 718.4,187.9 735.0,190.9" fill="none" stroke="#777" stroke-width="2.6"/>
  <polyline points="70.0,57.0 86.6,57.1 103.2,58.3 119.9,60.1 136.5,62.3 153.1,64.6 169.8,66.9 186.4,69.3 203.0,71.7 219.6,74.1 236.2,76.6 252.9,79.0 269.5,81.6 286.1,84.1 302.8,86.7 319.4,89.2 336.0,91.9 352.6,94.5 369.2,97.1 385.9,99.8 402.5,79.6 419.1,82.2 435.8,84.9 452.4,87.7 469.0,90.4 485.6,93.2 502.2,96.0 518.9,98.7 535.5,101.5 552.1,104.4 568.8,107.2 585.4,110.0 602.0,112.8 618.6,115.7 635.2,118.5 651.9,121.4 668.5,124.2 685.1,127.1 701.8,129.9 718.4,132.8 735.0,112.4" fill="none" stroke="#1f77b4" stroke-width="2.8"/>
  <text x="82" y="84" font-family="Arial, sans-serif" font-size="13" fill="#777">without protocol: F(20 µs)=0.615048</text>
  <text x="82" y="104" font-family="Arial, sans-serif" font-size="13" fill="#1f77b4">with QEC: F(20 µs)=0.840730</text>
  <text x="380.0" y="450" text-anchor="middle" font-family="Arial, sans-serif" font-size="14">Time (µs)</text>
  <text transform="translate(22 235.0) rotate(-90)" text-anchor="middle" font-family="Arial, sans-serif" font-size="14">Bell-state fidelity</text>
</svg>
